<mxfile host="app.diagrams.net" modified="2022-08-14T11:43:02.386Z" agent="5.0 (Windows NT 10.0; Win64; x64) AppleWebKit/537.36 (KHTML, like Gecko) Chrome/103.0.5060.114 Safari/537.36 OPR/89.0.4447.64" etag="Du1sNkUHxb9A_n1t7Hby" version="20.2.3" type="github">
  <diagram id="jgm0RBeZzpvmXqSqnX7T" name="Страница 1">
    <mxGraphModel dx="2895" dy="1208" grid="1" gridSize="10" guides="1" tooltips="1" connect="1" arrows="1" fold="1" page="1" pageScale="1" pageWidth="827" pageHeight="1169" math="0" shadow="0">
      <root>
        <mxCell id="0" />
        <mxCell id="1" parent="0" />
        <mxCell id="hmtJTCJ8iRIzzxCmszLz-3" style="edgeStyle=orthogonalEdgeStyle;rounded=0;orthogonalLoop=1;jettySize=auto;html=1;fontSize=24;" edge="1" parent="1" source="hmtJTCJ8iRIzzxCmszLz-1" target="hmtJTCJ8iRIzzxCmszLz-2">
          <mxGeometry relative="1" as="geometry" />
        </mxCell>
        <mxCell id="hmtJTCJ8iRIzzxCmszLz-1" value="&lt;font style=&quot;font-size: 24px;&quot;&gt;Начало&lt;/font&gt;" style="ellipse;whiteSpace=wrap;html=1;" vertex="1" parent="1">
          <mxGeometry x="354" y="60" width="120" height="80" as="geometry" />
        </mxCell>
        <mxCell id="hmtJTCJ8iRIzzxCmszLz-49" style="edgeStyle=orthogonalEdgeStyle;rounded=0;orthogonalLoop=1;jettySize=auto;html=1;exitX=0.5;exitY=1;exitDx=0;exitDy=0;entryX=0.5;entryY=0;entryDx=0;entryDy=0;fontSize=24;" edge="1" parent="1" source="hmtJTCJ8iRIzzxCmszLz-2" target="hmtJTCJ8iRIzzxCmszLz-5">
          <mxGeometry relative="1" as="geometry" />
        </mxCell>
        <mxCell id="hmtJTCJ8iRIzzxCmszLz-2" value="value = a" style="rounded=0;whiteSpace=wrap;html=1;fontSize=24;" vertex="1" parent="1">
          <mxGeometry x="354" y="180" width="120" height="60" as="geometry" />
        </mxCell>
        <mxCell id="hmtJTCJ8iRIzzxCmszLz-4" value="a = 2&lt;br&gt;b = 3&lt;br&gt;c = 12&lt;br&gt;d = 7" style="whiteSpace=wrap;html=1;aspect=fixed;fontSize=24;align=center;" vertex="1" parent="1">
          <mxGeometry x="640" y="15" width="170" height="170" as="geometry" />
        </mxCell>
        <mxCell id="hmtJTCJ8iRIzzxCmszLz-51" value="no" style="edgeStyle=orthogonalEdgeStyle;rounded=0;orthogonalLoop=1;jettySize=auto;html=1;exitX=0;exitY=0.5;exitDx=0;exitDy=0;entryX=0.5;entryY=0;entryDx=0;entryDy=0;fontSize=24;" edge="1" parent="1" source="hmtJTCJ8iRIzzxCmszLz-5" target="hmtJTCJ8iRIzzxCmszLz-13">
          <mxGeometry relative="1" as="geometry" />
        </mxCell>
        <mxCell id="hmtJTCJ8iRIzzxCmszLz-57" value="yes" style="edgeStyle=orthogonalEdgeStyle;rounded=0;orthogonalLoop=1;jettySize=auto;html=1;exitX=1;exitY=0.5;exitDx=0;exitDy=0;entryX=0.5;entryY=0;entryDx=0;entryDy=0;fontSize=24;" edge="1" parent="1" source="hmtJTCJ8iRIzzxCmszLz-5" target="hmtJTCJ8iRIzzxCmszLz-55">
          <mxGeometry relative="1" as="geometry" />
        </mxCell>
        <mxCell id="hmtJTCJ8iRIzzxCmszLz-5" value="a &amp;lt; value" style="rhombus;whiteSpace=wrap;html=1;fontSize=24;" vertex="1" parent="1">
          <mxGeometry x="120" y="360" width="126" height="110" as="geometry" />
        </mxCell>
        <mxCell id="hmtJTCJ8iRIzzxCmszLz-64" value="no" style="edgeStyle=orthogonalEdgeStyle;rounded=0;orthogonalLoop=1;jettySize=auto;html=1;exitX=0.5;exitY=1;exitDx=0;exitDy=0;entryX=0.5;entryY=0;entryDx=0;entryDy=0;fontSize=24;" edge="1" parent="1" source="hmtJTCJ8iRIzzxCmszLz-11" target="hmtJTCJ8iRIzzxCmszLz-5">
          <mxGeometry x="-0.6983" relative="1" as="geometry">
            <Array as="points">
              <mxPoint x="342" y="720" />
              <mxPoint x="510" y="720" />
              <mxPoint x="510" y="340" />
              <mxPoint x="183" y="340" />
            </Array>
            <mxPoint as="offset" />
          </mxGeometry>
        </mxCell>
        <mxCell id="hmtJTCJ8iRIzzxCmszLz-11" value="value = b" style="rounded=0;whiteSpace=wrap;html=1;fontSize=24;" vertex="1" parent="1">
          <mxGeometry x="282" y="640" width="120" height="60" as="geometry" />
        </mxCell>
        <mxCell id="hmtJTCJ8iRIzzxCmszLz-42" value="no" style="edgeStyle=orthogonalEdgeStyle;rounded=0;orthogonalLoop=1;jettySize=auto;html=1;exitX=0;exitY=0.5;exitDx=0;exitDy=0;entryX=0.5;entryY=0;entryDx=0;entryDy=0;fontSize=24;" edge="1" parent="1" source="hmtJTCJ8iRIzzxCmszLz-13" target="hmtJTCJ8iRIzzxCmszLz-23">
          <mxGeometry relative="1" as="geometry" />
        </mxCell>
        <mxCell id="hmtJTCJ8iRIzzxCmszLz-63" value="yes" style="edgeStyle=orthogonalEdgeStyle;rounded=0;orthogonalLoop=1;jettySize=auto;html=1;exitX=1;exitY=0.5;exitDx=0;exitDy=0;entryX=0.5;entryY=0;entryDx=0;entryDy=0;fontSize=24;" edge="1" parent="1" source="hmtJTCJ8iRIzzxCmszLz-13" target="hmtJTCJ8iRIzzxCmszLz-11">
          <mxGeometry relative="1" as="geometry" />
        </mxCell>
        <mxCell id="hmtJTCJ8iRIzzxCmszLz-13" value="b &amp;lt; value" style="rhombus;whiteSpace=wrap;html=1;fontSize=24;" vertex="1" parent="1">
          <mxGeometry x="118" y="560" width="130" height="110" as="geometry" />
        </mxCell>
        <mxCell id="hmtJTCJ8iRIzzxCmszLz-50" value="no" style="edgeStyle=orthogonalEdgeStyle;rounded=0;orthogonalLoop=1;jettySize=auto;html=1;exitX=0;exitY=0.5;exitDx=0;exitDy=0;entryX=0.5;entryY=0;entryDx=0;entryDy=0;fontSize=24;" edge="1" parent="1" source="hmtJTCJ8iRIzzxCmszLz-23" target="hmtJTCJ8iRIzzxCmszLz-30">
          <mxGeometry relative="1" as="geometry" />
        </mxCell>
        <mxCell id="hmtJTCJ8iRIzzxCmszLz-61" value="yes" style="edgeStyle=orthogonalEdgeStyle;rounded=0;orthogonalLoop=1;jettySize=auto;html=1;exitX=1;exitY=0.5;exitDx=0;exitDy=0;entryX=0.5;entryY=0;entryDx=0;entryDy=0;fontSize=24;" edge="1" parent="1" source="hmtJTCJ8iRIzzxCmszLz-23" target="hmtJTCJ8iRIzzxCmszLz-25">
          <mxGeometry relative="1" as="geometry" />
        </mxCell>
        <mxCell id="hmtJTCJ8iRIzzxCmszLz-23" value="c &amp;lt; value" style="rhombus;whiteSpace=wrap;html=1;fontSize=24;" vertex="1" parent="1">
          <mxGeometry x="118.5" y="760" width="129" height="140" as="geometry" />
        </mxCell>
        <mxCell id="hmtJTCJ8iRIzzxCmszLz-66" value="no" style="edgeStyle=orthogonalEdgeStyle;rounded=0;orthogonalLoop=1;jettySize=auto;html=1;exitX=0.5;exitY=1;exitDx=0;exitDy=0;entryX=0.5;entryY=0;entryDx=0;entryDy=0;fontSize=24;" edge="1" parent="1" source="hmtJTCJ8iRIzzxCmszLz-25" target="hmtJTCJ8iRIzzxCmszLz-5">
          <mxGeometry relative="1" as="geometry">
            <Array as="points">
              <mxPoint x="342" y="970" />
              <mxPoint x="690" y="970" />
              <mxPoint x="690" y="340" />
              <mxPoint x="183" y="340" />
            </Array>
          </mxGeometry>
        </mxCell>
        <mxCell id="hmtJTCJ8iRIzzxCmszLz-25" value="value = c" style="rounded=0;whiteSpace=wrap;html=1;fontSize=24;" vertex="1" parent="1">
          <mxGeometry x="282" y="890" width="120" height="60" as="geometry" />
        </mxCell>
        <mxCell id="hmtJTCJ8iRIzzxCmszLz-34" value="no" style="edgeStyle=orthogonalEdgeStyle;rounded=0;orthogonalLoop=1;jettySize=auto;html=1;exitX=0;exitY=0.5;exitDx=0;exitDy=0;entryX=0.5;entryY=0;entryDx=0;entryDy=0;fontSize=24;" edge="1" parent="1" source="hmtJTCJ8iRIzzxCmszLz-30" target="hmtJTCJ8iRIzzxCmszLz-53">
          <mxGeometry relative="1" as="geometry">
            <mxPoint x="10" y="1065" as="targetPoint" />
          </mxGeometry>
        </mxCell>
        <mxCell id="hmtJTCJ8iRIzzxCmszLz-36" value="yes" style="edgeStyle=orthogonalEdgeStyle;rounded=0;orthogonalLoop=1;jettySize=auto;html=1;exitX=1;exitY=0.5;exitDx=0;exitDy=0;entryX=0.5;entryY=0;entryDx=0;entryDy=0;fontSize=24;" edge="1" parent="1" source="hmtJTCJ8iRIzzxCmszLz-30" target="hmtJTCJ8iRIzzxCmszLz-54">
          <mxGeometry relative="1" as="geometry">
            <mxPoint x="389.9999999999998" y="1065" as="targetPoint" />
          </mxGeometry>
        </mxCell>
        <mxCell id="hmtJTCJ8iRIzzxCmszLz-30" value="d &amp;lt;= value" style="rhombus;whiteSpace=wrap;html=1;fontSize=24;" vertex="1" parent="1">
          <mxGeometry x="118" y="1000" width="124.25" height="130" as="geometry" />
        </mxCell>
        <mxCell id="hmtJTCJ8iRIzzxCmszLz-53" value="min = value" style="rounded=0;whiteSpace=wrap;html=1;fontSize=24;" vertex="1" parent="1">
          <mxGeometry x="-130" y="1095" width="150" height="60" as="geometry" />
        </mxCell>
        <mxCell id="hmtJTCJ8iRIzzxCmszLz-54" value="min = d" style="rounded=0;whiteSpace=wrap;html=1;fontSize=24;" vertex="1" parent="1">
          <mxGeometry x="390" y="1095" width="120" height="60" as="geometry" />
        </mxCell>
        <mxCell id="hmtJTCJ8iRIzzxCmszLz-55" value="min = a" style="rounded=0;whiteSpace=wrap;html=1;fontSize=24;" vertex="1" parent="1">
          <mxGeometry x="294" y="470" width="96" height="60" as="geometry" />
        </mxCell>
      </root>
    </mxGraphModel>
  </diagram>
</mxfile>
